<?xml version="1.0" encoding="UTF-8" standalone="no"?>
<!DOCTYPE svg PUBLIC "-//W3C//DTD SVG 1.1//EN"
 "http://www.w3.org/Graphics/SVG/1.1/DTD/svg11.dtd">
<!-- Generated by graphviz version 2.43.0 (0)
 -->
<!-- Title: image Pages: 1 -->
<svg width="376pt" height="132pt"
 viewBox="0.00 0.00 376.00 132.00" xmlns="http://www.w3.org/2000/svg" xmlns:xlink="http://www.w3.org/1999/xlink">
<g id="graph0" class="graph" transform="scale(1 1) rotate(0) translate(4 128)">
<title>image</title>
<polygon fill="white" stroke="transparent" points="-4,4 -4,-128 372,-128 372,4 -4,4"/>
<!-- key1 -->
<g id="node1" class="node">
<title>key1</title>
<polygon fill="chartreuse" stroke="chartreuse" points="102,-87.5 102,-123.5 156,-123.5 156,-87.5 102,-87.5"/>
<text text-anchor="middle" x="128.61" y="-101.3" font-family="Times,serif" font-size="14.00">key1</text>
</g>
<!-- A -->
<g id="node3" class="node">
<title>A</title>
<polygon fill="none" stroke="black" points="0,-0.5 0,-36.5 368,-36.5 368,-0.5 0,-0.5"/>
<text text-anchor="middle" x="11.5" y="-14.3" font-family="Times,serif" font-size="14.00">0</text>
<polyline fill="none" stroke="black" points="23,-0.5 23,-36.5 "/>
<text text-anchor="middle" x="34.5" y="-14.3" font-family="Times,serif" font-size="14.00">0</text>
<polyline fill="none" stroke="black" points="46,-0.5 46,-36.5 "/>
<text text-anchor="middle" x="57.5" y="-14.3" font-family="Times,serif" font-size="14.00">0</text>
<polyline fill="none" stroke="black" points="69,-0.5 69,-36.5 "/>
<text text-anchor="middle" x="80.5" y="-14.3" font-family="Times,serif" font-size="14.00">1</text>
<polyline fill="none" stroke="black" points="92,-0.5 92,-36.5 "/>
<text text-anchor="middle" x="103.5" y="-14.3" font-family="Times,serif" font-size="14.00">0</text>
<polyline fill="none" stroke="black" points="115,-0.5 115,-36.5 "/>
<text text-anchor="middle" x="126.5" y="-14.3" font-family="Times,serif" font-size="14.00">0</text>
<polyline fill="none" stroke="black" points="138,-0.5 138,-36.5 "/>
<text text-anchor="middle" x="149.5" y="-14.3" font-family="Times,serif" font-size="14.00">1</text>
<polyline fill="none" stroke="black" points="161,-0.5 161,-36.5 "/>
<text text-anchor="middle" x="172.5" y="-14.3" font-family="Times,serif" font-size="14.00">0</text>
<polyline fill="none" stroke="black" points="184,-0.5 184,-36.5 "/>
<text text-anchor="middle" x="195.5" y="-14.3" font-family="Times,serif" font-size="14.00">0</text>
<polyline fill="none" stroke="black" points="207,-0.5 207,-36.5 "/>
<text text-anchor="middle" x="218.5" y="-14.3" font-family="Times,serif" font-size="14.00">0</text>
<polyline fill="none" stroke="black" points="230,-0.5 230,-36.5 "/>
<text text-anchor="middle" x="241.5" y="-14.3" font-family="Times,serif" font-size="14.00">0</text>
<polyline fill="none" stroke="black" points="253,-0.5 253,-36.5 "/>
<text text-anchor="middle" x="264.5" y="-14.3" font-family="Times,serif" font-size="14.00">1</text>
<polyline fill="none" stroke="black" points="276,-0.5 276,-36.5 "/>
<text text-anchor="middle" x="287.5" y="-14.3" font-family="Times,serif" font-size="14.00">0</text>
<polyline fill="none" stroke="black" points="299,-0.5 299,-36.5 "/>
<text text-anchor="middle" x="310.5" y="-14.3" font-family="Times,serif" font-size="14.00">0</text>
<polyline fill="none" stroke="black" points="322,-0.5 322,-36.5 "/>
<text text-anchor="middle" x="333.5" y="-14.3" font-family="Times,serif" font-size="14.00">0</text>
<polyline fill="none" stroke="black" points="345,-0.5 345,-36.5 "/>
<text text-anchor="middle" x="356.5" y="-14.3" font-family="Times,serif" font-size="14.00">0</text>
</g>
<!-- key1&#45;&gt;A -->
<g id="edge1" class="edge">
<title>key1&#45;&gt;A:f0</title>
<path fill="none" stroke="chartreuse" d="M106.5,-87.42C100.59,-82.05 94.67,-75.75 90.34,-69 84.41,-59.76 81.61,-54.89 80.55,-47.04"/>
<polygon fill="chartreuse" stroke="chartreuse" points="84.04,-46.79 80,-37 77.05,-47.18 84.04,-46.79"/>
<text text-anchor="middle" x="107.33" y="-57.8" font-family="Times,serif" font-size="14.00">hash1</text>
</g>
<!-- key1&#45;&gt;A -->
<g id="edge2" class="edge">
<title>key1&#45;&gt;A:f1</title>
<path fill="none" stroke="chartreuse" d="M134.68,-87.22C138.79,-74.51 144.11,-57.65 146.97,-46.85"/>
<polygon fill="chartreuse" stroke="chartreuse" points="150.41,-47.5 149,-37 143.55,-46.09 150.41,-47.5"/>
<text text-anchor="middle" x="161.33" y="-57.8" font-family="Times,serif" font-size="14.00">hash2</text>
</g>
<!-- key2 -->
<g id="node2" class="node">
<title>key2</title>
<polygon fill="#ee6a50" stroke="#ee6a50" points="194,-87.5 194,-123.5 248,-123.5 248,-87.5 194,-87.5"/>
<text text-anchor="middle" x="220.61" y="-101.3" font-family="Times,serif" font-size="14.00">key2</text>
</g>
<!-- key2&#45;&gt;A -->
<g id="edge3" class="edge">
<title>key2&#45;&gt;A:f1</title>
<path fill="none" stroke="#ee6a50" d="M210.18,-87.47C203.06,-77.19 193.03,-64.32 182,-55 173.03,-47.42 160.36,-49.86 153.63,-46.17"/>
<polygon fill="#ee6a50" stroke="#ee6a50" points="156.63,-44.35 149,-37 150.38,-47.5 156.63,-44.35"/>
<text text-anchor="middle" x="211.33" y="-57.8" font-family="Times,serif" font-size="14.00">hash1</text>
</g>
<!-- key2&#45;&gt;A -->
<g id="edge4" class="edge">
<title>key2&#45;&gt;A:f2</title>
<path fill="none" stroke="#ee6a50" d="M240.17,-87.27C249.9,-76.94 260.37,-62.81 263.83,-47.34"/>
<polygon fill="#ee6a50" stroke="#ee6a50" points="267.35,-47.33 265,-37 260.39,-46.54 267.35,-47.33"/>
<text text-anchor="middle" x="277.33" y="-57.8" font-family="Times,serif" font-size="14.00">hash2</text>
</g>
</g>
</svg>
