<?xml version="1.0" encoding="UTF-8" standalone="no"?>
<!DOCTYPE svg PUBLIC "-//W3C//DTD SVG 1.1//EN"
 "http://www.w3.org/Graphics/SVG/1.1/DTD/svg11.dtd">
<!-- Generated by graphviz version 2.43.0 (0)
 -->
<!-- Title: image Pages: 1 -->
<svg width="510pt" height="152pt"
 viewBox="0.00 0.00 510.00 152.00" xmlns="http://www.w3.org/2000/svg" xmlns:xlink="http://www.w3.org/1999/xlink">
<g id="graph0" class="graph" transform="scale(1 1) rotate(0) translate(4 148)">
<title>image</title>
<polygon fill="white" stroke="transparent" points="-4,4 -4,-148 506,-148 506,4 -4,4"/>
<!-- 0 -->
<g id="node1" class="node">
<title>0</title>
<polygon fill="lightgrey" stroke="black" points="7,-144 0,-144 0,0 7,0 7,-144"/>
</g>
<!-- 1 -->
<g id="node2" class="node">
<title>1</title>
<polygon fill="lightgrey" stroke="black" points="106,-144 99,-144 99,0 106,0 106,-144"/>
</g>
<!-- 0&#45;&gt;1 -->
<g id="edge1" class="edge">
<title>0&#45;&gt;1</title>
<path fill="none" stroke="black" d="M7.01,-74.58C12.49,-80.18 25,-93 25,-93 25,-93 81,-93 81,-93 81,-93 86.39,-87.48 91.64,-82.1"/>
<polygon fill="black" stroke="black" points="94.51,-84.18 98.99,-74.58 89.5,-79.29 94.51,-84.18"/>
<text text-anchor="middle" x="53" y="-101.4" font-family="Times,serif" font-size="14.00">用户线程</text>
</g>
<!-- 0&#45;&gt;1 -->
<g id="edge2" class="edge">
<title>0&#45;&gt;1</title>
<path fill="none" stroke="black" d="M7.01,-71.68C12.49,-70.99 25,-69.4 25,-69.4 25,-69.4 81,-69.4 81,-69.4 81,-69.4 84.74,-69.87 89.03,-70.42"/>
<polygon fill="black" stroke="black" points="88.63,-73.9 98.99,-71.68 89.51,-66.95 88.63,-73.9"/>
<text text-anchor="middle" x="53" y="-77.4" font-family="Times,serif" font-size="14.00">用户线程</text>
</g>
<!-- 0&#45;&gt;1 -->
<g id="edge3" class="edge">
<title>0&#45;&gt;1</title>
<path fill="none" stroke="black" d="M7.01,-68.74C12.49,-61.64 25,-45.4 25,-45.4 25,-45.4 81,-45.4 81,-45.4 81,-45.4 87.19,-53.43 92.76,-60.66"/>
<polygon fill="black" stroke="black" points="90.11,-62.95 98.99,-68.74 95.65,-58.68 90.11,-62.95"/>
<text text-anchor="middle" x="53" y="-53.4" font-family="Times,serif" font-size="14.00">用户线程</text>
</g>
<!-- 2 -->
<g id="node3" class="node">
<title>2</title>
<polygon fill="lightgrey" stroke="black" points="205,-144 198,-144 198,0 205,0 205,-144"/>
</g>
<!-- 1&#45;&gt;2 -->
<g id="edge4" class="edge">
<title>1&#45;&gt;2</title>
<path fill="none" stroke="black" stroke-dasharray="5,2" d="M106.3,-72C118.19,-72 165,-72 187.83,-72"/>
<polygon fill="black" stroke="black" points="187.87,-75.5 197.87,-72 187.87,-68.5 187.87,-75.5"/>
<text text-anchor="middle" x="152" y="-80.4" font-family="Times,serif" font-size="14.00">初始标记</text>
</g>
<!-- 3 -->
<g id="node4" class="node">
<title>3</title>
<polygon fill="lightgrey" stroke="black" points="304,-144 297,-144 297,0 304,0 304,-144"/>
</g>
<!-- 2&#45;&gt;3 -->
<g id="edge5" class="edge">
<title>2&#45;&gt;3</title>
<path fill="none" stroke="black" stroke-dasharray="5,2" d="M205.01,-74.58C210.49,-80.18 223,-93 223,-93 223,-93 279,-93 279,-93 279,-93 284.39,-87.48 289.64,-82.1"/>
<polygon fill="black" stroke="black" points="292.51,-84.18 296.99,-74.58 287.5,-79.29 292.51,-84.18"/>
<text text-anchor="middle" x="251" y="-101.4" font-family="Times,serif" font-size="14.00">并发标记</text>
</g>
<!-- 2&#45;&gt;3 -->
<g id="edge6" class="edge">
<title>2&#45;&gt;3</title>
<path fill="none" stroke="black" d="M205.01,-71.68C210.49,-70.99 223,-69.4 223,-69.4 223,-69.4 279,-69.4 279,-69.4 279,-69.4 282.74,-69.87 287.03,-70.42"/>
<polygon fill="black" stroke="black" points="286.63,-73.9 296.99,-71.68 287.51,-66.95 286.63,-73.9"/>
<text text-anchor="middle" x="251" y="-77.4" font-family="Times,serif" font-size="14.00">用户线程</text>
</g>
<!-- 2&#45;&gt;3 -->
<g id="edge7" class="edge">
<title>2&#45;&gt;3</title>
<path fill="none" stroke="black" d="M205.01,-68.74C210.49,-61.64 223,-45.4 223,-45.4 223,-45.4 279,-45.4 279,-45.4 279,-45.4 285.19,-53.43 290.76,-60.66"/>
<polygon fill="black" stroke="black" points="288.11,-62.95 296.99,-68.74 293.65,-58.68 288.11,-62.95"/>
<text text-anchor="middle" x="251" y="-53.4" font-family="Times,serif" font-size="14.00">用户线程</text>
</g>
<!-- 4 -->
<g id="node5" class="node">
<title>4</title>
<polygon fill="lightgrey" stroke="black" points="403,-144 396,-144 396,0 403,0 403,-144"/>
</g>
<!-- 3&#45;&gt;4 -->
<g id="edge8" class="edge">
<title>3&#45;&gt;4</title>
<path fill="none" stroke="black" stroke-dasharray="5,2" d="M304.3,-72C316.19,-72 363,-72 385.83,-72"/>
<polygon fill="black" stroke="black" points="385.87,-75.5 395.87,-72 385.87,-68.5 385.87,-75.5"/>
<text text-anchor="middle" x="350" y="-80.4" font-family="Times,serif" font-size="14.00">重新标记</text>
</g>
<!-- 5 -->
<g id="node6" class="node">
<title>5</title>
<polygon fill="lightgrey" stroke="black" points="502,-144 495,-144 495,0 502,0 502,-144"/>
</g>
<!-- 4&#45;&gt;5 -->
<g id="edge9" class="edge">
<title>4&#45;&gt;5</title>
<path fill="none" stroke="black" stroke-dasharray="5,2" d="M403.01,-74.58C408.49,-80.18 421,-93 421,-93 421,-93 477,-93 477,-93 477,-93 482.39,-87.48 487.64,-82.1"/>
<polygon fill="black" stroke="black" points="490.51,-84.18 494.99,-74.58 485.5,-79.29 490.51,-84.18"/>
<text text-anchor="middle" x="449" y="-101.4" font-family="Times,serif" font-size="14.00">并发清理</text>
</g>
<!-- 4&#45;&gt;5 -->
<g id="edge10" class="edge">
<title>4&#45;&gt;5</title>
<path fill="none" stroke="black" d="M403.01,-71.68C408.49,-70.99 421,-69.4 421,-69.4 421,-69.4 477,-69.4 477,-69.4 477,-69.4 480.74,-69.87 485.03,-70.42"/>
<polygon fill="black" stroke="black" points="484.63,-73.9 494.99,-71.68 485.51,-66.95 484.63,-73.9"/>
<text text-anchor="middle" x="449" y="-77.4" font-family="Times,serif" font-size="14.00">用户线程</text>
</g>
<!-- 4&#45;&gt;5 -->
<g id="edge11" class="edge">
<title>4&#45;&gt;5</title>
<path fill="none" stroke="black" d="M403.01,-68.74C408.49,-61.64 421,-45.4 421,-45.4 421,-45.4 477,-45.4 477,-45.4 477,-45.4 483.19,-53.43 488.76,-60.66"/>
<polygon fill="black" stroke="black" points="486.11,-62.95 494.99,-68.74 491.65,-58.68 486.11,-62.95"/>
<text text-anchor="middle" x="449" y="-53.4" font-family="Times,serif" font-size="14.00">用户线程</text>
</g>
</g>
</svg>
