<?xml version="1.0" encoding="UTF-8" standalone="no"?>
<!DOCTYPE svg PUBLIC "-//W3C//DTD SVG 1.1//EN"
 "http://www.w3.org/Graphics/SVG/1.1/DTD/svg11.dtd">
<!-- Generated by graphviz version 2.43.0 (0)
 -->
<!-- Title: image Pages: 1 -->
<svg width="545pt" height="45pt"
 viewBox="0.00 0.00 544.67 45.00" xmlns="http://www.w3.org/2000/svg" xmlns:xlink="http://www.w3.org/1999/xlink">
<g id="graph0" class="graph" transform="scale(1 1) rotate(0) translate(4 41)">
<title>image</title>
<polygon fill="white" stroke="transparent" points="-4,4 -4,-41 540.67,-41 540.67,4 -4,4"/>
<!-- 加载类 -->
<g id="node1" class="node">
<title>加载类</title>
<polygon fill="none" stroke="black" points="0,-0.5 0,-36.5 58,-36.5 58,-0.5 0,-0.5"/>
<text text-anchor="middle" x="29" y="-17.3" font-family="Times,serif" font-size="14.00">加载类</text>
</g>
<!-- 分配内存 -->
<g id="node2" class="node">
<title>分配内存</title>
<polygon fill="none" stroke="black" points="94,-0.5 94,-36.5 166,-36.5 166,-0.5 94,-0.5"/>
<text text-anchor="middle" x="130" y="-17.3" font-family="Times,serif" font-size="14.00">分配内存</text>
</g>
<!-- 加载类&#45;&gt;分配内存 -->
<g id="edge1" class="edge">
<title>加载类&#45;&gt;分配内存</title>
<path fill="none" stroke="black" d="M58.1,-18.5C66.08,-18.5 74.96,-18.5 83.68,-18.5"/>
<polygon fill="black" stroke="black" points="83.76,-22 93.76,-18.5 83.76,-15 83.76,-22"/>
</g>
<!-- 初始化数据 -->
<g id="node3" class="node">
<title>初始化数据</title>
<polygon fill="none" stroke="black" points="202,-0.5 202,-36.5 288,-36.5 288,-0.5 202,-0.5"/>
<text text-anchor="middle" x="245" y="-17.3" font-family="Times,serif" font-size="14.00">初始化数据</text>
</g>
<!-- 分配内存&#45;&gt;初始化数据 -->
<g id="edge2" class="edge">
<title>分配内存&#45;&gt;初始化数据</title>
<path fill="none" stroke="black" d="M166.13,-18.5C174.24,-18.5 183.03,-18.5 191.69,-18.5"/>
<polygon fill="black" stroke="black" points="191.74,-22 201.74,-18.5 191.74,-15 191.74,-22"/>
</g>
<!-- 设置对象头 -->
<g id="node4" class="node">
<title>设置对象头</title>
<polygon fill="none" stroke="black" points="324,-0.5 324,-36.5 410,-36.5 410,-0.5 324,-0.5"/>
<text text-anchor="middle" x="367" y="-17.3" font-family="Times,serif" font-size="14.00">设置对象头</text>
</g>
<!-- 初始化数据&#45;&gt;设置对象头 -->
<g id="edge3" class="edge">
<title>初始化数据&#45;&gt;设置对象头</title>
<path fill="none" stroke="black" d="M288.31,-18.5C296.46,-18.5 305.1,-18.5 313.53,-18.5"/>
<polygon fill="black" stroke="black" points="313.67,-22 323.67,-18.5 313.67,-15 313.67,-22"/>
</g>
<!-- 执行init方法 -->
<g id="node5" class="node">
<title>执行init方法</title>
<polygon fill="none" stroke="black" points="446,-0.5 446,-36.5 536.67,-36.5 536.67,-0.5 446,-0.5"/>
<text text-anchor="middle" x="491.33" y="-17.3" font-family="Times,serif" font-size="14.00">执行init方法</text>
</g>
<!-- 设置对象头&#45;&gt;执行init方法 -->
<g id="edge4" class="edge">
<title>设置对象头&#45;&gt;执行init方法</title>
<path fill="none" stroke="black" d="M410.1,-18.5C418.26,-18.5 426.92,-18.5 435.41,-18.5"/>
<polygon fill="black" stroke="black" points="435.65,-22 445.65,-18.5 435.65,-15 435.65,-22"/>
</g>
</g>
</svg>
