<?xml version="1.0" encoding="UTF-8" standalone="no"?>
<!DOCTYPE svg PUBLIC "-//W3C//DTD SVG 1.1//EN"
 "http://www.w3.org/Graphics/SVG/1.1/DTD/svg11.dtd">
<!-- Generated by graphviz version 2.43.0 (0)
 -->
<!-- Title: TD Pages: 1 -->
<svg width="280pt" height="296pt"
 viewBox="0.00 0.00 280.00 296.00" xmlns="http://www.w3.org/2000/svg" xmlns:xlink="http://www.w3.org/1999/xlink">
<g id="graph0" class="graph" transform="scale(1 1) rotate(0) translate(4 292)">
<title>TD</title>
<polygon fill="white" stroke="transparent" points="-4,4 -4,-292 276,-292 276,4 -4,4"/>
<!-- t1 -->
<g id="node1" class="node">
<title>t1</title>
<polygon fill="none" stroke="black" points="58,-161 0,-161 0,-125 58,-125 58,-161"/>
<text text-anchor="middle" x="29" y="-141.6" font-family="Times,serif" font-size="14.00">业务表</text>
</g>
<!-- t2 -->
<g id="node2" class="node">
<title>t2</title>
<polygon fill="none" stroke="black" points="58,-89 0,-89 0,-53 58,-53 58,-89"/>
<text text-anchor="middle" x="29" y="-69.6" font-family="Times,serif" font-size="14.00">消息表</text>
</g>
<!-- t1&#45;&gt;t2 -->
<g id="edge2" class="edge">
<title>t1&#45;&gt;t2</title>
<path fill="none" stroke="black" d="M29,-124.95C29,-116.41 29,-107.86 29,-99.31"/>
<polygon fill="black" stroke="black" points="32.5,-99.28 29,-89.28 25.5,-99.28 32.5,-99.28"/>
</g>
<!-- p6 -->
<g id="node10" class="node">
<title>p6</title>
<ellipse fill="black" stroke="black" cx="136" cy="-108" rx="0" ry="0"/>
</g>
<!-- t2&#45;&gt;p6 -->
<g id="edge12" class="edge">
<title>t2&#45;&gt;p6</title>
<path fill="none" stroke="black" stroke-dasharray="5,2" d="M58.14,-80.92C88.27,-91.53 132.15,-107 134.87,-107.95"/>
<text text-anchor="middle" x="97" y="-103.8" font-family="Times,serif" font-size="14.00">mq</text>
</g>
<!-- s1 -->
<g id="node3" class="node">
<title>s1</title>
<polygon fill="none" stroke="black" points="58,-233 0,-233 0,-197 58,-197 58,-233"/>
<text text-anchor="middle" x="29" y="-213.6" font-family="Times,serif" font-size="14.00">主业务</text>
</g>
<!-- s1&#45;&gt;t1 -->
<g id="edge1" class="edge">
<title>s1&#45;&gt;t1</title>
<path fill="none" stroke="black" d="M29,-196.95C29,-188.41 29,-179.86 29,-171.31"/>
<polygon fill="black" stroke="black" points="32.5,-171.28 29,-161.28 25.5,-171.28 32.5,-171.28"/>
</g>
<!-- 服务A -->
<g id="node4" class="node">
<title>服务A</title>
<text text-anchor="middle" x="29" y="-267.6" font-family="Times,serif" font-size="14.00">服务A</text>
</g>
<!-- p2 -->
<g id="node5" class="node">
<title>p2</title>
<ellipse fill="black" stroke="black" cx="136" cy="-288" rx="0" ry="0"/>
</g>
<!-- p3 -->
<g id="node6" class="node">
<title>p3</title>
<ellipse fill="black" stroke="black" cx="136" cy="-252" rx="0" ry="0"/>
</g>
<!-- p2&#45;&gt;p3 -->
<g id="edge3" class="edge">
<title>p2&#45;&gt;p3</title>
<path fill="none" stroke="black" stroke-dasharray="5,2" d="M136,-287.72C136,-275.91 136,-264.09 136,-252.28"/>
</g>
<!-- p4 -->
<g id="node7" class="node">
<title>p4</title>
<ellipse fill="black" stroke="black" cx="136" cy="-216" rx="0" ry="0"/>
</g>
<!-- p3&#45;&gt;p4 -->
<g id="edge4" class="edge">
<title>p3&#45;&gt;p4</title>
<path fill="none" stroke="black" stroke-dasharray="5,2" d="M136,-251.72C136,-239.91 136,-228.09 136,-216.28"/>
</g>
<!-- p10 -->
<g id="node8" class="node">
<title>p10</title>
<ellipse fill="black" stroke="black" cx="136" cy="-180" rx="0" ry="0"/>
</g>
<!-- p4&#45;&gt;p10 -->
<g id="edge5" class="edge">
<title>p4&#45;&gt;p10</title>
<path fill="none" stroke="black" stroke-dasharray="5,2" d="M136,-215.72C136,-203.91 136,-192.09 136,-180.28"/>
</g>
<!-- p9 -->
<g id="node9" class="node">
<title>p9</title>
<ellipse fill="black" stroke="black" cx="136" cy="-144" rx="0" ry="0"/>
</g>
<!-- p10&#45;&gt;p9 -->
<g id="edge6" class="edge">
<title>p10&#45;&gt;p9</title>
<path fill="none" stroke="black" stroke-dasharray="5,2" d="M136,-179.72C136,-167.91 136,-156.09 136,-144.28"/>
</g>
<!-- p9&#45;&gt;p6 -->
<g id="edge7" class="edge">
<title>p9&#45;&gt;p6</title>
<path fill="none" stroke="black" stroke-dasharray="5,2" d="M136,-143.72C136,-131.91 136,-120.09 136,-108.28"/>
</g>
<!-- p5 -->
<g id="node11" class="node">
<title>p5</title>
<ellipse fill="black" stroke="black" cx="136" cy="-72" rx="0" ry="0"/>
</g>
<!-- p6&#45;&gt;p5 -->
<g id="edge8" class="edge">
<title>p6&#45;&gt;p5</title>
<path fill="none" stroke="black" stroke-dasharray="5,2" d="M136,-107.72C136,-95.91 136,-84.09 136,-72.28"/>
</g>
<!-- m1 -->
<g id="node14" class="node">
<title>m1</title>
<polygon fill="none" stroke="black" points="265,-126 207,-126 207,-90 265,-90 265,-126"/>
<text text-anchor="middle" x="236" y="-106.6" font-family="Times,serif" font-size="14.00">读消息</text>
</g>
<!-- p6&#45;&gt;m1 -->
<g id="edge13" class="edge">
<title>p6&#45;&gt;m1</title>
<path fill="none" stroke="black" stroke-dasharray="5,2" d="M137.07,-108C138.75,-108 169.85,-108 196.56,-108"/>
<polygon fill="black" stroke="black" points="196.88,-111.5 206.88,-108 196.88,-104.5 196.88,-111.5"/>
<text text-anchor="middle" x="168" y="-116.4" font-family="Times,serif" font-size="14.00">轮询</text>
</g>
<!-- p7 -->
<g id="node12" class="node">
<title>p7</title>
<ellipse fill="black" stroke="black" cx="136" cy="-36" rx="0" ry="0"/>
</g>
<!-- p5&#45;&gt;p7 -->
<g id="edge9" class="edge">
<title>p5&#45;&gt;p7</title>
<path fill="none" stroke="black" stroke-dasharray="5,2" d="M136,-71.72C136,-59.91 136,-48.09 136,-36.28"/>
</g>
<!-- p7&#45;&gt;t2 -->
<g id="edge15" class="edge">
<title>p7&#45;&gt;t2</title>
<path fill="none" stroke="black" d="M134.87,-36.04C132.43,-36.86 96.76,-48.75 67.69,-58.44"/>
<polygon fill="black" stroke="black" points="66.52,-55.14 58.14,-61.62 68.73,-61.78 66.52,-55.14"/>
<text text-anchor="middle" x="97" y="-62.4" font-family="Times,serif" font-size="14.00">改状态</text>
</g>
<!-- p8 -->
<g id="node13" class="node">
<title>p8</title>
<ellipse fill="black" stroke="black" cx="136" cy="0" rx="0" ry="0"/>
</g>
<!-- p7&#45;&gt;p8 -->
<g id="edge10" class="edge">
<title>p7&#45;&gt;p8</title>
<path fill="none" stroke="black" stroke-dasharray="5,2" d="M136,-35.72C136,-23.91 136,-12.09 136,-0.28"/>
</g>
<!-- s2 -->
<g id="node15" class="node">
<title>s2</title>
<polygon fill="none" stroke="black" points="272,-54 200,-54 200,-18 272,-18 272,-54"/>
<text text-anchor="middle" x="236" y="-34.6" font-family="Times,serif" font-size="14.00">附属业务</text>
</g>
<!-- m1&#45;&gt;s2 -->
<g id="edge11" class="edge">
<title>m1&#45;&gt;s2</title>
<path fill="none" stroke="black" d="M236,-89.95C236,-81.41 236,-72.86 236,-64.31"/>
<polygon fill="black" stroke="black" points="239.5,-64.28 236,-54.28 232.5,-64.28 239.5,-64.28"/>
</g>
<!-- s2&#45;&gt;p7 -->
<g id="edge14" class="edge">
<title>s2&#45;&gt;p7</title>
<path fill="none" stroke="black" d="M199.97,-36C172.58,-36 138.82,-36 137.07,-36"/>
<text text-anchor="middle" x="168" y="-44.4" font-family="Times,serif" font-size="14.00">成功</text>
</g>
<!-- 服务B -->
<g id="node16" class="node">
<title>服务B</title>
<text text-anchor="middle" x="236" y="-160.6" font-family="Times,serif" font-size="14.00">服务B</text>
</g>
</g>
</svg>
