<?xml version="1.0" encoding="UTF-8" standalone="no"?>
<!DOCTYPE svg PUBLIC "-//W3C//DTD SVG 1.1//EN"
 "http://www.w3.org/Graphics/SVG/1.1/DTD/svg11.dtd">
<!-- Generated by graphviz version 2.43.0 (0)
 -->
<!-- Title: TD Pages: 1 -->
<svg width="352pt" height="220pt"
 viewBox="0.00 0.00 352.00 219.80" xmlns="http://www.w3.org/2000/svg" xmlns:xlink="http://www.w3.org/1999/xlink">
<g id="graph0" class="graph" transform="scale(1 1) rotate(0) translate(4 215.8)">
<title>TD</title>
<polygon fill="white" stroke="transparent" points="-4,4 -4,-215.8 348,-215.8 348,4 -4,4"/>
<!-- t1 -->
<g id="node1" class="node">
<title>t1</title>
<polygon fill="none" stroke="black" points="58,-71 0,-71 0,-35 58,-35 58,-71"/>
<text text-anchor="middle" x="29" y="-51.6" font-family="Times,serif" font-size="14.00">业务表</text>
</g>
<!-- p6 -->
<g id="node7" class="node">
<title>p6</title>
<ellipse fill="black" stroke="black" cx="165" cy="-94" rx="0" ry="0"/>
</g>
<!-- t1&#45;&gt;p6 -->
<g id="edge7" class="edge">
<title>t1&#45;&gt;p6</title>
<path fill="none" stroke="black" d="M58.09,-61.59C88.16,-70.79 134.22,-84.89 154.2,-91"/>
<polygon fill="black" stroke="black" points="153.37,-94.41 163.95,-93.99 155.41,-87.71 153.37,-94.41"/>
</g>
<!-- s1 -->
<g id="node2" class="node">
<title>s1</title>
<polygon fill="none" stroke="black" points="58,-143 0,-143 0,-107 58,-107 58,-143"/>
<text text-anchor="middle" x="29" y="-123.6" font-family="Times,serif" font-size="14.00">主业务</text>
</g>
<!-- s1&#45;&gt;t1 -->
<g id="edge1" class="edge">
<title>s1&#45;&gt;t1</title>
<path fill="none" stroke="black" d="M29,-106.95C29,-98.41 29,-89.86 29,-81.31"/>
<polygon fill="black" stroke="black" points="32.5,-81.28 29,-71.28 25.5,-81.28 32.5,-81.28"/>
</g>
<!-- 服务A -->
<g id="node3" class="node">
<title>服务A</title>
<text text-anchor="middle" x="29" y="-177.6" font-family="Times,serif" font-size="14.00">服务A</text>
</g>
<!-- p2 -->
<g id="node4" class="node">
<title>p2</title>
<text text-anchor="middle" x="165" y="-196.6" font-family="Times,serif" font-size="14.00">消息中间件</text>
</g>
<!-- p8 -->
<g id="node5" class="node">
<title>p8</title>
<ellipse fill="black" stroke="black" cx="165" cy="-166" rx="0" ry="0"/>
</g>
<!-- p9 -->
<g id="node6" class="node">
<title>p9</title>
<ellipse fill="black" stroke="black" cx="165" cy="-130" rx="0" ry="0"/>
</g>
<!-- p8&#45;&gt;p9 -->
<g id="edge2" class="edge">
<title>p8&#45;&gt;p9</title>
<path fill="none" stroke="black" stroke-dasharray="5,2" d="M165,-165.72C165,-153.91 165,-142.09 165,-130.28"/>
</g>
<!-- p9&#45;&gt;p6 -->
<g id="edge3" class="edge">
<title>p9&#45;&gt;p6</title>
<path fill="none" stroke="black" stroke-dasharray="5,2" d="M165,-129.72C165,-117.91 165,-106.09 165,-94.28"/>
</g>
<!-- p6&#45;&gt;s1 -->
<g id="edge8" class="edge">
<title>p6&#45;&gt;s1</title>
<path fill="none" stroke="black" d="M163.95,-94.01C162.09,-94.44 107.03,-107.18 68.09,-116.19"/>
<polygon fill="black" stroke="black" points="67.04,-112.84 58.09,-118.5 68.62,-119.66 67.04,-112.84"/>
<text text-anchor="middle" x="90" y="-122.4" font-family="Times,serif" font-size="14.00">失败</text>
</g>
<!-- p5 -->
<g id="node8" class="node">
<title>p5</title>
<ellipse fill="black" stroke="black" cx="165" cy="-58" rx="0" ry="0"/>
</g>
<!-- p6&#45;&gt;p5 -->
<g id="edge4" class="edge">
<title>p6&#45;&gt;p5</title>
<path fill="none" stroke="black" stroke-dasharray="5,2" d="M165,-93.72C165,-81.91 165,-70.09 165,-58.28"/>
</g>
<!-- p7 -->
<g id="node9" class="node">
<title>p7</title>
<ellipse fill="black" stroke="black" cx="165" cy="-22" rx="0" ry="0"/>
</g>
<!-- p5&#45;&gt;p7 -->
<g id="edge5" class="edge">
<title>p5&#45;&gt;p7</title>
<path fill="none" stroke="black" stroke-dasharray="5,2" d="M165,-57.72C165,-45.91 165,-34.09 165,-22.28"/>
</g>
<!-- m1 -->
<g id="node10" class="node">
<title>m1</title>
<polygon fill="none" stroke="black" points="335,-108 281,-108 281,-72 335,-72 335,-108"/>
<text text-anchor="middle" x="308" y="-88.6" font-family="Times,serif" font-size="14.00">消息</text>
</g>
<!-- p5&#45;&gt;m1 -->
<g id="edge10" class="edge">
<title>p5&#45;&gt;m1</title>
<path fill="none" stroke="black" d="M166.1,-58.02C168.94,-58.67 230.2,-72.57 271,-81.83"/>
<polygon fill="black" stroke="black" points="270.36,-85.27 280.89,-84.07 271.91,-78.45 270.36,-85.27"/>
</g>
<!-- s2 -->
<g id="node11" class="node">
<title>s2</title>
<polygon fill="none" stroke="black" points="344,-36 272,-36 272,0 344,0 344,-36"/>
<text text-anchor="middle" x="308" y="-16.6" font-family="Times,serif" font-size="14.00">附属业务</text>
</g>
<!-- m1&#45;&gt;s2 -->
<g id="edge6" class="edge">
<title>m1&#45;&gt;s2</title>
<path fill="none" stroke="black" d="M308,-71.95C308,-63.41 308,-54.86 308,-46.31"/>
<polygon fill="black" stroke="black" points="311.5,-46.28 308,-36.28 304.5,-46.28 311.5,-46.28"/>
</g>
<!-- s2&#45;&gt;p5 -->
<g id="edge9" class="edge">
<title>s2&#45;&gt;p5</title>
<path fill="none" stroke="black" d="M271.66,-28.03C230.86,-39.6 168.95,-57.16 166.1,-57.97"/>
<text text-anchor="middle" x="240" y="-49.4" font-family="Times,serif" font-size="14.00">失败</text>
</g>
<!-- 服务B -->
<g id="node12" class="node">
<title>服务B</title>
<text text-anchor="middle" x="308" y="-142.6" font-family="Times,serif" font-size="14.00">服务B</text>
</g>
</g>
</svg>
