<?xml version="1.0" encoding="UTF-8" standalone="no"?>
<!DOCTYPE svg PUBLIC "-//W3C//DTD SVG 1.1//EN"
 "http://www.w3.org/Graphics/SVG/1.1/DTD/svg11.dtd">
<!-- Generated by graphviz version 2.43.0 (0)
 -->
<!-- Title: image Pages: 1 -->
<svg width="858pt" height="45pt"
 viewBox="0.00 0.00 858.43 45.00" xmlns="http://www.w3.org/2000/svg" xmlns:xlink="http://www.w3.org/1999/xlink">
<g id="graph0" class="graph" transform="scale(1 1) rotate(0) translate(4 41)">
<title>image</title>
<polygon fill="white" stroke="transparent" points="-4,4 -4,-41 854.43,-41 854.43,4 -4,4"/>
<!-- 用户线程 -->
<g id="node1" class="node">
<title>用户线程</title>
<polygon fill="none" stroke="black" points="0,-0.5 0,-36.5 72,-36.5 72,-0.5 0,-0.5"/>
<text text-anchor="middle" x="36" y="-17.3" font-family="Times,serif" font-size="14.00">用户线程</text>
</g>
<!-- 暂停 -->
<g id="node2" class="node">
<title>暂停</title>
<polygon fill="none" stroke="black" points="108,-0.5 108,-36.5 162,-36.5 162,-0.5 108,-0.5"/>
<text text-anchor="middle" x="135" y="-17.3" font-family="Times,serif" font-size="14.00">暂停</text>
</g>
<!-- 用户线程&#45;&gt;暂停 -->
<g id="edge1" class="edge">
<title>用户线程&#45;&gt;暂停</title>
<path fill="none" stroke="black" d="M72.02,-18.5C80.34,-18.5 89.23,-18.5 97.61,-18.5"/>
<polygon fill="black" stroke="black" points="97.86,-22 107.86,-18.5 97.86,-15 97.86,-22"/>
</g>
<!-- gc线程 -->
<g id="node3" class="node">
<title>gc线程</title>
<polygon fill="none" stroke="black" points="198,-0.5 198,-36.5 255.21,-36.5 255.21,-0.5 198,-0.5"/>
<text text-anchor="middle" x="226.61" y="-17.3" font-family="Times,serif" font-size="14.00">gc线程</text>
</g>
<!-- 暂停&#45;&gt;gc线程 -->
<g id="edge2" class="edge">
<title>暂停&#45;&gt;gc线程</title>
<path fill="none" stroke="black" d="M162.4,-18.5C170.33,-18.5 179.19,-18.5 187.7,-18.5"/>
<polygon fill="black" stroke="black" points="187.84,-22 197.84,-18.5 187.84,-15 187.84,-22"/>
</g>
<!-- 启动 -->
<g id="node4" class="node">
<title>启动</title>
<polygon fill="none" stroke="black" points="291.21,-0.5 291.21,-36.5 345.21,-36.5 345.21,-0.5 291.21,-0.5"/>
<text text-anchor="middle" x="318.21" y="-17.3" font-family="Times,serif" font-size="14.00">启动</text>
</g>
<!-- gc线程&#45;&gt;启动 -->
<g id="edge3" class="edge">
<title>gc线程&#45;&gt;启动</title>
<path fill="none" stroke="black" d="M255.47,-18.5C263.58,-18.5 272.55,-18.5 281.09,-18.5"/>
<polygon fill="black" stroke="black" points="281.2,-22 291.2,-18.5 281.2,-15 281.2,-22"/>
</g>
<!-- 回收新生代（复制算法） -->
<g id="node5" class="node">
<title>回收新生代（复制算法）</title>
<polygon fill="none" stroke="black" points="381.21,-0.5 381.21,-36.5 551.21,-36.5 551.21,-0.5 381.21,-0.5"/>
<text text-anchor="middle" x="466.21" y="-17.3" font-family="Times,serif" font-size="14.00">回收新生代（复制算法）</text>
</g>
<!-- 启动&#45;&gt;回收新生代（复制算法） -->
<g id="edge4" class="edge">
<title>启动&#45;&gt;回收新生代（复制算法）</title>
<path fill="none" stroke="black" d="M345.32,-7.87C352.91,-6.77 361.67,-5.99 370.93,-5.52"/>
<polygon fill="black" stroke="black" points="371.29,-9.01 381.15,-5.14 371.02,-2.02 371.29,-9.01"/>
</g>
<!-- 启动&#45;&gt;回收新生代（复制算法） -->
<g id="edge7" class="edge">
<title>启动&#45;&gt;回收新生代（复制算法）</title>
<path fill="none" stroke="black" d="M345.32,-18.5C352.91,-18.5 361.67,-18.5 370.93,-18.5"/>
<polygon fill="black" stroke="black" points="371.15,-22 381.15,-18.5 371.15,-15 371.15,-22"/>
</g>
<!-- 启动&#45;&gt;回收新生代（复制算法） -->
<g id="edge8" class="edge">
<title>启动&#45;&gt;回收新生代（复制算法）</title>
<path fill="none" stroke="black" d="M345.32,-29.13C352.91,-30.23 361.67,-31.01 370.93,-31.48"/>
<polygon fill="black" stroke="black" points="371.02,-34.98 381.15,-31.86 371.29,-27.99 371.02,-34.98"/>
</g>
<!-- 回收老年代（标记整理） -->
<g id="node6" class="node">
<title>回收老年代（标记整理）</title>
<polygon fill="none" stroke="black" points="587.21,-0.5 587.21,-36.5 757.21,-36.5 757.21,-0.5 587.21,-0.5"/>
<text text-anchor="middle" x="672.21" y="-17.3" font-family="Times,serif" font-size="14.00">回收老年代（标记整理）</text>
</g>
<!-- 回收新生代（复制算法）&#45;&gt;回收老年代（标记整理） -->
<g id="edge5" class="edge">
<title>回收新生代（复制算法）&#45;&gt;回收老年代（标记整理）</title>
<path fill="none" stroke="black" d="M551.37,-18.5C559.72,-18.5 568.23,-18.5 576.67,-18.5"/>
<polygon fill="black" stroke="black" points="576.93,-22 586.93,-18.5 576.93,-15 576.93,-22"/>
</g>
<!-- gc完成 -->
<g id="node7" class="node">
<title>gc完成</title>
<polygon fill="none" stroke="black" points="793.21,-0.5 793.21,-36.5 850.43,-36.5 850.43,-0.5 793.21,-0.5"/>
<text text-anchor="middle" x="821.82" y="-17.3" font-family="Times,serif" font-size="14.00">gc完成</text>
</g>
<!-- 回收老年代（标记整理）&#45;&gt;gc完成 -->
<g id="edge6" class="edge">
<title>回收老年代（标记整理）&#45;&gt;gc完成</title>
<path fill="none" stroke="black" d="M757.37,-18.5C766.28,-18.5 774.99,-18.5 782.96,-18.5"/>
<polygon fill="black" stroke="black" points="782.96,-22 792.96,-18.5 782.96,-15 782.96,-22"/>
</g>
</g>
</svg>
