<?xml version="1.0" encoding="UTF-8" standalone="no"?>
<!DOCTYPE svg PUBLIC "-//W3C//DTD SVG 1.1//EN"
 "http://www.w3.org/Graphics/SVG/1.1/DTD/svg11.dtd">
<!-- Generated by graphviz version 2.43.0 (0)
 -->
<!-- Title: image Pages: 1 -->
<svg width="512pt" height="105pt"
 viewBox="0.00 0.00 511.56 105.00" xmlns="http://www.w3.org/2000/svg" xmlns:xlink="http://www.w3.org/1999/xlink">
<g id="graph0" class="graph" transform="scale(1 1) rotate(0) translate(4 101)">
<title>image</title>
<polygon fill="white" stroke="transparent" points="-4,4 -4,-101 507.56,-101 507.56,4 -4,4"/>
<g id="clust1" class="cluster">
<title>cluster_2</title>
<polygon fill="mintcream" stroke="black" points="8,-8 8,-89 264.17,-89 264.17,-8 8,-8"/>
<text text-anchor="middle" x="136.08" y="-73.8" font-family="Times,serif" font-size="14.00">redis头对象</text>
</g>
<g id="clust2" class="cluster">
<title>cluster_1</title>
<polygon fill="mintcream" stroke="black" points="284.17,-8 284.17,-89 495.56,-89 495.56,-8 284.17,-8"/>
<text text-anchor="middle" x="389.86" y="-73.8" font-family="Times,serif" font-size="14.00">内容</text>
</g>
<!-- redisobject -->
<g id="node1" class="node">
<title>redisobject</title>
<polygon fill="none" stroke="black" points="16,-17 16,-53 256.17,-53 256.17,-17 16,-17"/>
<text text-anchor="middle" x="36.05" y="-30.8" font-family="Times,serif" font-size="14.00">type</text>
<polyline fill="none" stroke="black" points="56.1,-17 56.1,-53 "/>
<text text-anchor="middle" x="89.76" y="-30.8" font-family="Times,serif" font-size="14.00">encoding</text>
<polyline fill="none" stroke="black" points="123.42,-17 123.42,-53 "/>
<text text-anchor="middle" x="139.2" y="-30.8" font-family="Times,serif" font-size="14.00">lru</text>
<polyline fill="none" stroke="black" points="154.97,-17 154.97,-53 "/>
<text text-anchor="middle" x="186.29" y="-30.8" font-family="Times,serif" font-size="14.00">refcount</text>
<polyline fill="none" stroke="black" points="217.61,-17 217.61,-53 "/>
<text text-anchor="middle" x="236.89" y="-30.8" font-family="Times,serif" font-size="14.00">*ptr</text>
</g>
<!-- SDS -->
<g id="node2" class="node">
<title>SDS</title>
<polygon fill="none" stroke="black" points="292.17,-17 292.17,-53 487.56,-53 487.56,-17 292.17,-17"/>
<text text-anchor="middle" x="323.48" y="-30.8" font-family="Times,serif" font-size="14.00">capacity</text>
<polyline fill="none" stroke="black" points="354.8,-17 354.8,-53 "/>
<text text-anchor="middle" x="371.35" y="-30.8" font-family="Times,serif" font-size="14.00">len</text>
<polyline fill="none" stroke="black" points="387.9,-17 387.9,-53 "/>
<text text-anchor="middle" x="409.13" y="-30.8" font-family="Times,serif" font-size="14.00">flags</text>
<polyline fill="none" stroke="black" points="430.35,-17 430.35,-53 "/>
<text text-anchor="middle" x="458.96" y="-30.8" font-family="Times,serif" font-size="14.00">content</text>
</g>
<!-- redisobject&#45;&gt;SDS -->
<g id="edge1" class="edge">
<title>redisobject&#45;&gt;SDS</title>
<path fill="none" stroke="black" stroke-dasharray="5,2" d="M256.34,-35C264.83,-35 273.37,-35 281.79,-35"/>
<polygon fill="black" stroke="black" points="281.99,-38.5 291.99,-35 281.99,-31.5 281.99,-38.5"/>
</g>
</g>
</svg>
